# xmcd
#
# Track frame offsets:
#        150
#        28311
#        59187
#        86642
#        103624
#        141857
#        174701
#        188126
#        211730
#        235123
#
# Disc length: 3292 seconds
#
# Revision: 3
# Processed by: cddbd v1.5.1PL0 Copyright (c) Steve Scherf et al.
# Submitted via: ExactAudioCopy v0.95a5
#
DISCID=900cda0a
DTITLE=Brandon Ross - Costume
DYEAR=2004
DGENRE=Jazz
TTITLE0=Another Approach
TTITLE1=No Wonder
TTITLE2=Pease Flows
TTITLE3=Race Face
TTITLE4=Dry Lips
TTITLE5=I Am The Light
TTITLE6=(Hearts Bleating In A) September Sky - For Aime and Wifredo
TTITLE7=One Solar Year
TTITLE8=Twelve Gates To The Cry
TTITLE9=Anthem For A New World
EXTD=
EXTT0=
EXTT1=
EXTT2=
EXTT3=
EXTT4=
EXTT5=
EXTT6=
EXTT7=
EXTT8=
EXTT9=
PLAYORDER=
